<svg width="492" height="354" viewBox="0 0 492 354" fill="none" xmlns="http://www.w3.org/2000/svg">
<g clip-path="url(#clip0_1_1505)">
<path d="M436.805 307.453L370.023 312.107L423.839 330.339L490.754 325.666L436.805 307.453Z" stroke="#AAA8AE" stroke-width="0.25" stroke-miterlimit="10"/>
<path d="M110.715 330.129L43.3594 334.821L96.5239 353.149L164.014 348.438L110.715 330.129Z" stroke="#AAA8AE" stroke-width="0.25" stroke-miterlimit="10"/>
<path d="M14.788 206.258L14.5391 206.966L67.6653 225.007L67.9142 224.279C67.7419 205.607 80.4584 191.894 94.19 180.939L41.0064 163.014C27.2939 173.93 14.5965 187.623 14.788 206.258Z" stroke="#AAA8AE" stroke-width="0.25" stroke-miterlimit="10"/>
<path d="M40.1068 96.941L39.1875 28.666L92.3711 46.2854L93.3096 114.714L40.1068 96.941Z" stroke="#AAA8AE" stroke-width="0.25" stroke-miterlimit="10"/>
<path d="M100.523 24.5293L100.792 44.466L154.109 62.1045L153.841 42.1295L100.523 24.5293Z" stroke="#AAA8AE" stroke-width="0.25" stroke-miterlimit="10"/>
<path d="M271.855 142.024L273.943 318.792L327.567 337.043C326.839 274.111 323.89 210.816 325.345 147.903C325.996 119.157 337.526 90.5828 369.623 85.8715C437.362 75.9319 422.137 179.733 422.577 219.07C422.999 256.147 423.401 293.244 423.841 330.321L370.026 312.089C369.374 255.994 368.742 199.919 368.091 143.824C367.861 123.159 369.7 99.5457 355.643 82.5583C341.586 65.5709 316.88 63.675 298.246 74.1891C273.464 88.1888 270.821 116.437 271.855 142.004V142.024Z" stroke="#AAA8AE" stroke-miterlimit="10"/>
<path d="M273.946 318.791L206.992 323.349L260.482 341.62L327.57 337.042L273.946 318.791Z" stroke="#AAA8AE" stroke-miterlimit="10"/>
<path d="M108.164 140.835L110.711 330.129L164.009 348.437C163.148 283.916 157.977 218.035 161.539 153.629C163.013 127.066 176.439 101.364 204.955 97.0935C273.824 86.79 258.713 189.959 259.192 230.292C259.633 267.408 260.054 304.504 260.495 341.62L207.004 323.349C206.334 268.25 205.702 213.151 205.051 158.034C204.591 119.922 194.211 59.8248 139.802 82.5384C116.801 92.1333 107.723 117.452 108.164 140.835Z" stroke="#AAA8AE" stroke-miterlimit="10"/>
<path d="M43.3599 334.822L41.0234 163.014L94.2071 180.939L96.5244 353.15L43.3599 334.822Z" stroke="#AAA8AE" stroke-miterlimit="10"/>
<path d="M37.9776 98.7033L40.1225 96.9414L93.3062 114.714C76.0507 128.886 56.5353 143.173 53.835 166.806C51.8241 184.425 55.9225 210.893 67.1836 225.026L67.6624 224.988L14.5362 206.947L14.0574 206.986C2.96867 193.12 -1.03399 167.304 0.651342 149.934C2.91122 126.664 20.9902 112.684 37.9776 98.7033Z" stroke="#AAA8AE" stroke-miterlimit="10"/>
<path d="M39.1875 28.666L100.53 24.5293L153.847 42.1295L92.3711 46.2854L39.1875 28.666Z" stroke="#AAA8AE" stroke-miterlimit="10"/>
<path d="M248.164 42.7798L251.764 47.5294L305.389 65.1679C269.518 15.24 194.597 21.8664 154.13 62.1228L100.812 44.4843C139.403 6.20053 211.106 -2.6283 248.183 42.799L248.164 42.7798Z" stroke="#AAA8AE" stroke-miterlimit="10"/>
<path d="M434.509 103.529C435.064 171.498 436.06 239.485 436.826 307.454L490.776 325.667C490.163 271.258 489.55 216.829 488.937 162.42C488.325 108.01 487.041 38.165 421.237 21.4457C378.242 10.5102 330.67 29.1829 305.39 65.1494L251.766 47.5109C278.08 10.1272 329.138 -8.83275 373.224 5.64577C414.994 19.3582 433.934 62.1809 434.509 103.529Z" stroke="#AAA8AE" stroke-miterlimit="10"/>
<path d="M488.477 121.282C489.013 189.423 490.009 257.544 490.775 325.685L423.841 330.358C423.113 266.68 425.315 202.312 421.619 138.748C420.125 113.008 408.596 87.192 379.639 85.4301C347.828 83.4958 328.294 109.503 325.766 138.499C320.097 203.729 326.8 271.64 327.566 337.08L260.479 341.658C259.713 278.151 262.164 213.822 258.18 150.449C256.514 123.963 244.966 98.1275 215.185 96.6337C186.975 95.2165 167.288 116.092 162.653 142.597C158.018 169.103 161.983 196.719 162.327 222.516C162.883 264.516 163.457 306.496 164.013 348.495L96.5228 353.206L94.1863 181.015C80.4547 191.951 67.719 205.682 67.9105 224.355L67.6615 225.083L67.1827 225.121C55.8259 211.198 51.8233 184.347 53.8342 166.9C56.5345 143.268 76.0499 128.961 93.3054 114.808L92.3861 46.3611L153.843 42.2052L154.111 62.1802C194.578 21.9621 269.537 15.2591 305.37 65.2253C331.722 27.765 382.895 8.72843 427.077 23.2452C468.942 36.996 487.902 79.9145 488.477 121.358V121.282Z" stroke="#AAA8AE" stroke-miterlimit="10"/>
<path d="M434.512 105.673C434.359 64.44 416.74 21.4066 375.488 6.43013C331.056 -9.69541 278.447 9.66673 251.75 47.51C215.975 -2.28379 141.188 4.28517 100.798 44.465L100.53 24.5283L39.1877 28.665L40.1261 96.94C22.8898 111.093 3.45107 125.322 0.731559 148.917C-1.2985 166.498 2.83822 192.927 14.061 207.023L14.5398 206.984L14.7887 206.276C14.5972 187.641 27.2947 173.967 41.0071 163.032L43.3627 334.84L110.718 330.147C109.838 265.435 103.92 198.845 108.267 134.266C110.048 108.01 124.144 83.0552 152.22 79.2823C220.571 70.1088 205.212 173.01 205.671 213.324C206.112 249.999 206.533 286.674 206.974 323.349L273.927 318.791C273.18 255.993 270.25 192.87 271.667 130.091C272.319 101.421 283.829 72.9049 315.85 68.2128C383.455 58.3115 368.268 161.844 368.727 201.124C369.148 238.125 369.57 275.125 369.991 312.126L436.791 307.491C436.025 240.231 435.259 172.971 434.493 105.692L434.512 105.673Z" stroke="#AAA8AE" stroke-miterlimit="10"/>
</g>
<defs>
<clipPath id="clip0_1_1505">
<rect width="491.963" height="353" fill="white" transform="translate(0 0.474609)"/>
</clipPath>
</defs>
</svg>
