<svg width="104" height="101" viewBox="0 0 104 101" fill="none" xmlns="http://www.w3.org/2000/svg">
<path id="Vector" d="M43.3298 100.475C43.2654 100.475 43.201 100.469 43.1366 100.459C41.5267 100.188 41.2152 96.9325 40.8419 91.641C40.7079 89.7446 40.5699 87.7839 40.3268 86.3061C39.985 84.2195 39.5737 83.9754 39.4948 83.9478C39.412 83.9189 38.9165 83.8481 37.3092 85.2969C36.1763 86.3193 34.8279 87.7852 33.5228 89.2026C30.4396 92.5544 28.342 94.7461 26.9305 94.7474C26.7215 94.7474 26.527 94.6988 26.347 94.5991C24.9302 93.8143 25.7253 90.6567 27.1381 85.5712C27.6494 83.7326 28.1777 81.8296 28.4458 80.3479C28.8243 78.2507 28.5129 77.878 28.4458 77.8255C28.3788 77.7704 27.9398 77.5421 25.9514 78.361C24.5477 78.9397 22.7893 79.8637 21.0899 80.7561C16.4361 83.1997 13.5303 84.6368 12.4723 83.4307C11.4104 82.2207 13.2267 79.5329 16.2771 75.2467C17.3877 73.6863 18.5363 72.0734 19.296 70.7636C20.3723 68.9092 20.2041 68.4459 20.1594 68.3724C20.1147 68.2989 19.7862 67.938 17.6531 68.022C16.1457 68.0811 14.1861 68.3383 12.2923 68.589C7.05101 69.2793 3.80874 69.6258 3.23309 68.1126C2.66665 66.6217 5.29516 64.7555 9.63221 61.8342C11.229 60.758 12.8811 59.6451 14.0626 58.6779C15.7396 57.3051 15.7448 56.8012 15.729 56.7146C15.7146 56.6332 15.5385 56.1922 13.5395 55.5242C12.124 55.0518 10.2157 54.6029 8.37051 54.1685C3.1805 52.948 0 52.1173 0 50.4742C0 48.8311 3.1805 48.0004 8.37051 46.7812C10.2157 46.3468 12.124 45.8992 13.5395 45.4255C15.5385 44.7575 15.7146 44.3178 15.729 44.2351C15.7448 44.1485 15.7396 43.6446 14.0626 42.2718C12.8811 41.3046 11.229 40.1917 9.63221 39.1155C5.29516 36.1929 2.66665 34.3267 3.23309 32.8371C3.80874 31.3226 7.05101 31.6691 12.2923 32.3607C14.1861 32.6101 16.1457 32.8686 17.6531 32.9277C19.7875 33.009 20.116 32.6507 20.1594 32.5772C20.2041 32.5037 20.3723 32.0405 19.296 30.1861C18.5363 28.8763 17.3877 27.2634 16.2771 25.703C13.2267 21.4181 11.4104 18.7303 12.4723 17.519C13.5303 16.3129 16.4361 17.7487 21.0886 20.1936C22.7879 21.086 24.5464 22.01 25.9501 22.5887C27.9398 23.409 28.3775 23.1793 28.4445 23.1242C28.5102 23.0704 28.8217 22.6989 28.4445 20.6018C28.1764 19.1188 27.6481 17.2171 27.1368 15.3785C25.7227 10.293 24.9289 7.13543 26.3456 6.35062C27.7388 5.57894 29.9809 7.8979 33.5215 11.7471C34.8253 13.1658 36.175 14.6317 37.3079 15.6541C38.9139 17.1029 39.4107 17.0321 39.4935 17.0032C39.5724 16.9757 39.9837 16.7329 40.3254 14.6449C40.5673 13.1671 40.7066 11.2064 40.8406 9.31005C41.2139 4.01853 41.524 0.762486 43.1353 0.492136C44.6875 0.228347 46.0267 3.14315 48.0743 7.91497C48.8379 9.69587 49.6278 11.5358 50.3637 12.8863C51.4099 14.8037 51.9106 14.9008 52 14.9008C52.0894 14.9008 52.5901 14.8037 53.6363 12.8863C54.3722 11.5372 55.1621 9.69587 55.9257 7.91497C57.9733 3.14184 59.3099 0.229658 60.8647 0.490822C62.4747 0.761173 62.7861 4.01722 63.1594 9.30874C63.2934 11.2051 63.4314 13.1658 63.6746 14.6436C64.0176 16.7302 64.4276 16.9743 64.5065 17.0019C64.5893 17.0308 65.0861 17.1016 66.6921 15.6528C67.825 14.6304 69.1734 13.1645 70.4785 11.7471C74.0191 7.8979 76.2599 5.57763 77.6544 6.35062C79.0711 7.13543 78.276 10.293 76.8632 15.3785C76.3519 17.2171 75.8236 19.1201 75.5555 20.6018C75.1769 22.6989 75.4884 23.0717 75.5555 23.1242C75.6225 23.1793 76.0614 23.4076 78.0499 22.5887C79.4536 22.01 81.2121 21.086 82.9114 20.1936C87.5639 17.7487 90.4697 16.3129 91.5277 17.519C92.5896 18.729 90.7733 21.4168 87.7229 25.703C86.6123 27.2634 85.4637 28.8763 84.704 30.1861C83.6277 32.0405 83.7959 32.5037 83.8406 32.5772C83.8852 32.6507 84.2125 33.0103 86.3469 32.9277C87.8543 32.8686 89.8139 32.6114 91.7077 32.3607C96.949 31.6704 100.191 31.3226 100.767 32.8371C101.333 34.328 98.7048 36.1942 94.3678 39.1155C92.7696 40.1917 91.1189 41.3046 89.9374 42.2718C88.2604 43.6446 88.2551 44.1485 88.2709 44.2351C88.2854 44.3165 88.4615 44.7575 90.4605 45.4255C91.876 45.8979 93.7842 46.3468 95.6295 46.7812C100.819 48.0017 104 48.8324 104 50.4742C104 52.116 100.819 52.948 95.6295 54.1685C93.7842 54.6016 91.8773 55.0505 90.4605 55.5229C88.4615 56.1909 88.2854 56.6306 88.2709 56.7133C88.2551 56.7999 88.2604 57.3038 89.9374 58.6766C91.1189 59.6438 92.771 60.7567 94.3678 61.8329C98.7048 64.7555 101.333 66.6217 100.767 68.1113C100.191 69.6258 96.949 69.2793 91.7077 68.5877C89.8139 68.3383 87.8543 68.0798 86.3469 68.0207C84.2125 67.9367 83.8839 68.2976 83.8406 68.3711C83.7959 68.4446 83.6277 68.9079 84.704 70.7623C85.4637 72.0721 86.6123 73.685 87.7229 75.2454C90.7733 79.5303 92.5896 82.2181 91.5277 83.4294C90.4697 84.6368 87.5639 83.1997 82.9101 80.7548C81.2107 79.8623 79.4523 78.9384 78.0486 78.3597C76.0588 77.5394 75.6212 77.7691 75.5541 77.8242C75.4884 77.878 75.1769 78.2494 75.5541 80.3466C75.8223 81.8296 76.3506 83.7312 76.8619 85.5699C78.276 90.6554 79.0698 93.813 77.653 94.5978C76.2586 95.3708 74.0178 93.0505 70.4772 89.2013C69.1734 87.7839 67.8237 86.3167 66.6908 85.2956C65.0848 83.8467 64.588 83.9176 64.5052 83.9465C64.4263 83.974 64.015 84.2168 63.6732 86.3048C63.4314 87.7826 63.2921 89.7433 63.1581 91.6396C62.7848 96.9312 62.4747 100.187 60.8634 100.458C60.799 100.468 60.7346 100.473 60.6702 100.473C59.1942 100.473 57.8866 97.6084 55.9244 93.0334C55.1608 91.2525 54.3709 89.4125 53.6349 88.0621C52.5901 86.1447 52.0894 86.0476 51.9987 86.0476C51.908 86.0476 51.4086 86.1447 50.3624 88.0621C49.6264 89.4112 48.8366 91.2525 48.073 93.0334C46.1108 97.6084 44.8031 100.473 43.3272 100.473L43.3298 100.475ZM52.0013 85.0003C53.5456 85.0003 54.8664 87.8967 56.893 92.6213C57.6618 94.4127 58.457 96.2645 59.1851 97.5861C60.2273 99.4759 60.6728 99.4247 60.6912 99.4221C60.7411 99.4142 61.1906 99.2777 61.5625 97.1188C61.8267 95.5938 61.9713 93.5466 62.1106 91.5662C62.4655 86.5476 62.7533 83.4465 64.1595 82.9556C65.6013 82.453 67.7934 84.7326 71.2526 88.4926C72.58 89.9362 73.9534 91.4284 75.0889 92.4402C76.716 93.8904 77.1273 93.6896 77.1444 93.6804C77.1878 93.6568 77.5584 93.3838 77.1878 91.242C76.9263 89.7262 76.3782 87.7563 75.8499 85.8521C74.4962 80.9805 73.726 77.9476 74.8944 77.0066C76.0746 76.0577 78.895 77.4594 83.4003 79.8256C85.1443 80.7416 86.9475 81.6892 88.3656 82.2627C90.4 83.0855 90.7233 82.7522 90.7365 82.7378C90.7496 82.7234 91.0387 82.3572 89.9492 80.4503C89.1896 79.1208 88.0081 77.4607 86.866 75.8543C83.9234 71.7203 82.1596 69.1205 82.939 67.8291C83.7144 66.5456 86.8279 66.8855 91.8444 67.547C93.8066 67.8055 95.8371 68.0732 97.3761 68.1205C99.5854 68.1874 99.776 67.757 99.7838 67.7386C99.7904 67.7215 99.9297 67.2884 98.2567 65.9012C97.087 64.9314 95.4061 63.7988 93.7803 62.703C89.5445 59.8485 86.9619 58.023 87.2366 56.5243C87.5021 55.0702 90.5078 54.2932 95.3877 53.1462C97.3288 52.6895 99.3357 52.2183 100.806 51.7118C102.888 50.9952 102.947 50.5254 102.947 50.4742C102.947 50.423 102.887 49.9545 100.806 49.2379C99.3357 48.7314 97.3288 48.2589 95.3877 47.8035C90.5065 46.6565 87.5021 45.8795 87.2366 44.4254C86.9619 42.9254 89.5445 41.1012 93.7803 38.2467C95.4061 37.1509 97.087 36.0183 98.2567 35.0485C99.9297 33.6613 99.7904 33.2282 99.7838 33.2111C99.7773 33.1927 99.5854 32.761 97.3761 32.8292C95.8371 32.8765 93.8079 33.1442 91.8444 33.4027C86.8279 34.0642 83.7144 34.4041 82.939 33.1206C82.1583 31.8292 83.9234 29.2293 86.866 25.0953C88.0094 23.4903 89.1909 21.8302 89.9492 20.4994C91.0387 18.5925 90.7483 18.2263 90.7365 18.2119C90.7233 18.1975 90.4 17.8641 88.3656 18.687C86.9475 19.2605 85.1443 20.2081 83.4003 21.1241C78.8963 23.4903 76.0746 24.8933 74.8944 23.9444C73.7247 23.0034 74.4962 19.9705 75.8499 15.0989C76.3795 13.1947 76.9263 11.2248 77.1878 9.70899C77.5571 7.56718 77.1878 7.29423 77.1444 7.2706C77.1273 7.26142 76.716 7.06062 75.0889 8.5108C73.9534 9.52264 72.58 11.0161 71.2526 12.4585C68.1128 15.872 66.0166 18.0636 64.5788 18.0649C64.4329 18.0649 64.2936 18.0426 64.1595 17.9954C62.7533 17.5046 62.4641 14.4047 62.1106 9.38615C61.9713 7.40576 61.8267 5.35847 61.5625 3.83217C61.1893 1.6733 60.7411 1.53812 60.6912 1.52894C60.6728 1.52762 60.2273 1.47644 59.1851 3.36496C58.4557 4.68652 57.6618 6.53959 56.893 8.32967C54.8651 13.0542 53.5442 15.9507 52.0013 15.9507C50.4584 15.9507 49.1362 13.0542 47.1083 8.32967C46.3395 6.53827 45.5457 4.68652 44.8163 3.36496C43.774 1.47513 43.3311 1.52762 43.3101 1.52894C43.2602 1.53681 42.8107 1.6733 42.4387 3.83217C42.1746 5.35716 42.0313 7.40576 41.8907 9.38615C41.5359 14.4047 41.248 17.5059 39.8418 17.9954C38.4013 18.498 36.2078 16.2184 32.7487 12.4585C31.4213 11.0148 30.0479 9.52264 28.9124 8.5108C27.2853 7.06062 26.874 7.26142 26.8569 7.2706C26.8135 7.29423 26.4429 7.56718 26.8122 9.70899C27.0737 11.2248 27.6218 13.1947 28.1501 15.0989C29.5038 19.9705 30.274 23.0034 29.1056 23.9444C27.9267 24.8933 25.105 23.4916 20.5997 21.1254C18.8557 20.2093 17.0525 19.2618 15.6344 18.6883C13.6 17.8655 13.2766 18.1988 13.2635 18.2132C13.2504 18.2277 12.9612 18.5938 14.0507 20.5007C14.8104 21.8302 15.9919 23.4903 17.134 25.0967C20.0766 29.2307 21.8404 31.8305 21.061 33.1219C20.2856 34.4054 17.1721 34.0655 12.1556 33.404C10.1934 33.1455 8.16285 32.8778 6.62386 32.8305C4.41459 32.761 4.22404 33.1941 4.21747 33.2124C4.2109 33.2295 4.07157 33.6626 5.74462 35.0498C6.91431 36.0196 8.59526 37.1522 10.221 38.2481C14.4569 41.1025 17.0394 42.928 16.7647 44.4267C16.4992 45.8808 13.4935 46.6578 8.61366 47.8048C6.6725 48.2615 4.66563 48.7327 3.19497 49.2393C1.11319 49.9558 1.05404 50.4256 1.05404 50.4755C1.05404 50.5254 1.1145 50.9952 3.19497 51.7131C4.66563 52.2197 6.6725 52.6921 8.61366 53.1475C13.4948 54.2945 16.4992 55.0715 16.7647 56.5256C17.0394 58.0256 14.4569 59.8498 10.221 62.7043C8.59526 63.8001 6.91431 64.9327 5.74462 65.9026C4.07157 67.2897 4.2109 67.7228 4.21747 67.7399C4.22404 67.7583 4.41459 68.1913 6.62517 68.1218C8.16417 68.0745 10.1934 67.8068 12.1569 67.5483C17.1734 66.8868 20.2869 66.5469 21.0623 67.8304C21.843 69.1218 20.0779 71.7216 17.1353 75.8556C15.9919 77.4607 14.8104 79.1208 14.0521 80.4516C12.9625 82.3585 13.253 82.7247 13.2648 82.7391C13.278 82.7535 13.6013 83.0869 15.6357 82.264C17.0538 81.6905 18.857 80.7429 20.601 79.8269C25.105 77.4607 27.9267 76.0591 29.1069 77.0079C30.2766 77.9489 29.5051 80.9818 28.1514 85.8534C27.6218 87.7576 27.0751 89.7275 26.8135 91.2433C26.4442 93.3851 26.8135 93.6581 26.8569 93.6817C26.874 93.6909 27.2853 93.8917 28.9124 92.4415C30.0479 91.4297 31.4213 89.9362 32.7487 88.4939C36.2078 84.7339 38.4 82.4543 39.8418 82.9569C41.248 83.4478 41.5372 86.5476 41.8907 91.5662C42.03 93.5466 42.1746 95.5938 42.4387 97.1202C42.812 99.279 43.2602 99.4142 43.3101 99.4234C43.3285 99.426 43.774 99.4759 44.8163 97.5874C45.5457 96.2658 46.3395 94.4127 47.1083 92.6226C49.1362 87.8967 50.457 85.0016 52.0013 85.0016V85.0003Z" fill="#2C638E"/>
</svg>
